<svg xmlns="http://www.w3.org/2000/svg" version="1.1" xmlns:xlink="http://www.w3.org/1999/xlink" xmlns:svgjs="http://svgjs.dev/svgjs" width="69.53" height="69.53"><svg id="SvgjsSvg1003" data-name="Layer 2" xmlns="http://www.w3.org/2000/svg" viewBox="0 0 69.53 69.53">
  <defs>
    <style>
      .cls-1 {
        fill: none;
      }

      .cls-2 {
        stroke: #000;
        stroke-linecap: round;
        stroke-linejoin: round;
        stroke-width: 2.42px;
      }

      .cls-2, .cls-3 {
        fill: #fff;
      }
    </style>
  </defs>
  <g id="SvgjsG1002" data-name="Layer 1">
    <g>
      <g>
        <g>
          <path class="cls-3" d="M41.26,64.81c-1.5,0-2.9-.8-3.66-2.08-.97-1.64-.73-3.74.59-5.11l1.35-1.4-1.35-2.28c-.64.09-1.28.16-1.91.2-.54.03-1.08.05-1.61.05-2.84,0-5.62-.47-8.29-1.4l-6.19,6.34c-.83.85-1.95,1.33-3.14,1.33,0,0-.06,0-.13,0-1.1,0-2.2-.47-3.02-1.3l-10.55-10.55c-1.64-1.63-1.65-4.31-.04-5.97.79-.81,1.9-1.28,3.04-1.28.71,0,1.42.18,2.05.53l1.7.94,2.14-2.19c-1.38-2.75-2.36-6.13-2.92-10.05-.53-3.67-.43-7.17.26-9.36.46-1.45,1.46-2.43,2.33-3.29.61-.6,1.18-1.16,1.46-1.75,1.4-3,5.34-6.25,5.37-6.27,2.34-1.75,6.11-3.53,9.23-3.53,2.07,0,3.29.77,3.98,1.49,0,0,.02,0,.03,0,1.52-.6,3.97-.91,7.29-.91,10.95,0,18.85,4.15,20.12,10.57l.04.15c.05.25.07.34.38,5.44,2.75.59,4.97,2.24,6.33,4.72,2.01,3.66,1.61,8.41-1.01,12.09-2.13,3.43-5.9,5.6-10.16,5.87l2.91,4.9c.61,1.02.78,2.22.48,3.37-.3,1.15-1.04,2.11-2.07,2.71l-12.92,7.46c-.64.37-1.37.57-2.12.57Z"></path>
          <path class="cls-3" d="M27.98,7.89c1.24,0,2.3.33,3,1.14.13.15.24.31.34.48.32-.06.64-.12.96-.17l.11-.02c1.63-.71,4.61-.86,6.89-.86,10.07,0,17.54,3.76,18.64,9.36l.04.19c.02.11.04.22.42,6.4,2.82.26,5.12,1.72,6.44,4.14,1.73,3.16,1.37,7.28-.92,10.5-2.06,3.31-5.78,5.27-9.82,5.27-.4,0-.8-.02-1.2-.06-.11.13-.22.26-.33.38l4.05,6.82c.4.68.51,1.47.31,2.23-.2.76-.68,1.4-1.36,1.79l-12.92,7.46c-.43.25-.9.37-1.37.37-.94,0-1.86-.48-2.37-1.34-.63-1.06-.47-2.42.38-3.3l2.14-2.23-2.45-4.14c-.93.17-1.85.28-2.77.34-.51.03-1.01.05-1.52.05-2.98,0-5.9-.55-8.69-1.64l-6.87,7.04c-.55.56-1.29.88-2.07.88-.04,0-.08,0-.12,0-.72,0-1.43-.33-1.96-.86l-10.55-10.55c-1.06-1.06-1.07-2.79-.02-3.86.53-.54,1.25-.83,1.97-.83.45,0,.91.11,1.32.34l2.7,1.49,3.7-3.79c-1.57-2.76-2.67-6.29-3.28-10.52-.49-3.41-.41-6.74.21-8.7.35-1.09,1.17-1.9,1.96-2.68.67-.66,1.37-1.35,1.76-2.19,1.14-2.45,4.56-5.44,4.91-5.71,2.28-1.7,5.69-3.23,8.33-3.23M27.98,4.89c-3.7,0-7.77,2.06-10.13,3.83-.04.03-4.27,3.49-5.83,6.84-.16.35-.66.84-1.15,1.32-.91.89-2.14,2.11-2.71,3.91-.76,2.4-.88,6.15-.32,10.03.52,3.64,1.39,6.83,2.61,9.54l-.61.63-.7-.39c-.85-.47-1.81-.71-2.77-.71-1.54,0-3.04.63-4.11,1.73-2.19,2.24-2.17,5.87.05,8.08l10.55,10.55c1.1,1.1,2.59,1.74,4.08,1.74.07,0,.13,0,.2,0,1.57-.02,3.04-.66,4.14-1.78l5.54-5.67c2.55.79,5.19,1.18,7.87,1.18.56,0,1.14-.02,1.7-.05.34-.02.69-.05,1.03-.09l.27.45-.56.58c-1.79,1.86-2.12,4.7-.8,6.92,1.03,1.73,2.92,2.81,4.95,2.81,1.01,0,2-.27,2.87-.77l12.92-7.46c1.38-.8,2.36-2.09,2.77-3.63.4-1.55.18-3.15-.64-4.52l-1.76-2.97c3.74-.82,6.97-3.03,9-6.24,2.91-4.14,3.32-9.47,1.05-13.61-1.37-2.49-3.56-4.29-6.22-5.15-.25-4.14-.27-4.23-.33-4.53v-.04s-.02-.04-.02-.04l-.04-.15c-1.44-7.13-9.9-11.73-21.58-11.73-3,0-5.3.24-6.98.72-.94-.7-2.33-1.3-4.32-1.3h0Z"></path>
        </g>
        <path d="M52.26,19.69c-3.38,10.35-18.01,11.97-24.52,11.13-6.51-.84-11.42-2.71-12.56-8.1-1.12-5.34,4.94-10,5.36-10.32,3.06-2.29,7.92-3.9,9.3-2.31,2.05,2.37-4.76,10.45-3.13,11.84.82.71,2.89.03,5.05-1.96s4.91-6.12,7.24-5.64-1.89,5.78.74,6.28c2.62.5,6.81-2.76,9.49-3.41,2.16-.5,3.54.5,3.03,2.49Z"></path>
        <g>
          <path d="M59.57,26.07c-.89-.25-1.76-.31-2.6-.23-.16-2.55-.45-7.3-.47-7.45-.85-5.09-8.03-8.33-17.21-8.33-2.21,0-6.49.17-6.99,1.3-.5,1.14.28,2.12,1.08,1.99.79-.13,1.69-.27,2.57-.35,1.19-.11,2.31-.15,3.33-.14,7.6,0,13.77,2.53,14.43,5.91.06.73.31,4.86.5,7.93-2.4,1.23-4.28,3.61-5.11,6.1-.46,1.26,1.35,2.14,2.06.99.73-1.17,1.6-2.23,2.63-3.01,1.38-1.06,3.06-1.71,4.58-1.19,1.4.54,2.31,1.74,2.22,3.33-.64,5.56-5.78,8.03-11.01,6.6-1.26-.3-1.95,1.52-.79,2.13.17.1.35.18.52.27-3.32,3.72-8.04,6.19-13.4,6.53-.43.03-.86.04-1.27.04-6.82,0-11.86-4-12.95-4.9-8.79-7.28-7.24-20.34-7.57-21.54-.33-1.2-1.35-.63-1.68.19-.33.83-.44,5.74-.16,8.03.28,2.3,1.54,7.72,3.69,10.95l-5.32,5.45-3.7-2.05c-.49-.27-1.1-.18-1.49.22-.48.49-.47,1.27.01,1.75l10.55,10.55c.56.56,1.46.55,2.02-.01l7.58-7.77c2.82,1.25,5.88,1.92,9.03,1.92.48,0,.96-.02,1.45-.05,1.24-.08,2.44-.26,3.61-.53l3.58,6.04-2.93,3.05c-.39.4-.46,1.02-.17,1.5.35.59,1.1.78,1.69.44l12.92-7.46c.68-.39.91-1.27.51-1.95l-4.62-7.78c.53-.54,1.02-1.11,1.49-1.69,4.05.71,8.42-.89,10.63-4.59,2.94-4.2,2.21-10.49-3.24-12.19Z"></path>
          <path class="cls-2" d="M55.32,32.65c.06.6.06,1.49-.23,2.52-.3,1.09-.81,1.93-1.2,2.46"></path>
        </g>
      </g>
      <rect class="cls-1" width="69.53" height="69.53"></rect>
    </g>
  </g>
</svg><style>@media (prefers-color-scheme: light) { :root { filter: none; } }
@media (prefers-color-scheme: dark) { :root { filter: none; } }
</style></svg>