<?xml version="1.0" encoding="UTF-8" standalone="no"?>
<svg
   version="1.1"
   id="svg1"
   width="504"
   height="504"
   viewBox="0 0 504 504"
   xmlns="http://www.w3.org/2000/svg"
   xmlns:svg="http://www.w3.org/2000/svg">
  <defs
     id="defs1" />
  <g
     id="g1"
     transform="translate(-81,-81)">
    <path
       style="fill:#000000"
       d="M 81,514.5 V 444 H 151.5 222 V 514.5 585 H 151.5 81 Z m 121,0 V 464 H 151.5 101 v 50.5 50.5 h 50.5 50.5 z m -81,0 V 484 H 151.5 182 V 514.5 545 H 151.5 121 Z m 121,20 V 484 h 10 10 V 474 464 H 252 242 V 444 424 H 181.5 121 V 403.5 383 H 151.5 182 V 353 323 H 171.5 161 v 10 10 h -10 -10 v -10 -10 h -10 -10 v -10 -10 h 10 10 v 10 10 h 10 10 V 303 283 H 141 121 V 272.5 262 H 111 101 V 282.5 303 H 91 81 V 272.5 242 h 50.5 50.5 v 10 10 h 10 10 v -10 -10 h 30 30 v -10 -10 h -10 -10 v -20 -20 h 10 10 V 171.5 161 h -10 -10 v -10 -10 h 30.5 30.5 v 10 10 h 10 10 v -10 -10 h 20 20 V 161.5 182 H 383.5 404 V 171.5 161 H 393.5 383 V 141 121 H 353 323 V 101 81 h 20 20 v 10 10 H 383.5 404 V 91 81 h 10 10 v 30 30 h -10 -10 v 10 10 h 10 10 v 10.5 10.5 h -10 -10 v 10 10 h 10 10 v 20 20 h 10 10 v 10 10 h -10 -10 v 10.5 10.5 h 20 20 V 262.5 242 h 10 10 v 20.5 20.5 h 20.5 20.5 v 10 10 H 504.5 484 v -10 -10 h -10 -10 v 20 20 h 20.5 20.5 v 10 10 h 10 10 v -10 -10 h 20 20 V 313 303 H 555 545 V 272.5 242 h 10 10 v 20.5 20.5 h 10 10 v 30 30 h -10 -10 v 10 10 h 10 10 V 383.5 404 H 575 565 V 393.5 383 h -10 -10 v -20 -20 h -10 -10 v 20 20 h -10 -10 v 20.5 20.5 h 10 10 v -10 -10 h 10 10 v 10 10 h -10 -10 v 10 10 h 30 30 v 20 20 h -10 -10 v 10.5 10.5 h 10 10 v 40 40 H 524.5 464 v -10 -10 h -10 -10 v 10 10 H 434 424 V 575 565 H 403.5 383 v 10 10 h -40 -40 v -10 -10 h 10 10 v -10 -10 h 10 10 v 10 10 h 20 20 V 555 545 H 373 363 V 535 525 H 383.5 404 V 515 505 H 373.5 343 V 494.5 484 h -20 -20 v 10.5 10.5 h 10 10 v 10 10 h -10 -10 v 10 10 h -10 -10 v 20 20 H 262.5 242 Z M 444,555 V 545 H 474.5 505 V 535 525 H 494.5 484 v -10 -10 h -10 -10 v 10 10 h -10 -10 v 10 10 h -10 -10 v 10 10 h 10 10 z m 121,-10 v -20 h -10 -10 v 10 10 h -10 -10 v 10 10 h 20 20 z M 283,535 v -10 h 10 10 v -10 -10 h -10 -10 v 10 10 H 272.5 262 v 10 10 H 272.5 283 Z M 525,494.5 V 484 h 10 10 v -10 -10 h -10 -10 v -10 -10 h -10 -10 v 10 10 h 10 10 v 10 10 h -10 -10 v 10.5 10.5 h 10 10 z M 363,474 V 464 H 353 343 V 444 424 H 333 323 V 414 404 H 313 303 V 393.5 383 h 20 20 v 10.5 10.5 h 10 10 v 20 20 h 10 10 v 20 20 H 393.5 404 V 464 444 H 393.5 383 V 424 404 H 373 363 V 393.5 383 h 10 10 v -10 -10 h 10.5 10.5 v -10 -10 h 10 10 v -10 -10 h -10 -10 v -10 -10 h 10 10 V 293 283 H 414 404 V 272.5 262 h 10 10 V 252 242 H 414 404 V 222 202 H 393.5 383 v 10 10 h -10 -10 v -10 -10 h -10 -10 v 20 20 h -30 -30 v 10 10 H 272.5 262 V 272.5 283 H 252 242 V 272.5 262 h -20 -20 v 10.5 10.5 h 20 20 v 10 10 h -30 -30 v 10 10 h 30 30 v -10 -10 h 10 10 v 10 10 h 20.5 20.5 v -10 -10 h 10 10 v 10 10 h 40.5 40.5 v 10 10 H 383.5 363 v 20 20 h -10 -10 v -20 -20 h -10 -10 v 10 10 H 313 303 V 353 343 H 272.5 242 v 10 10 h -10 -10 v -10 -10 h -10 -10 v 10 10 h 10 10 v 10 10 h -10 -10 v 10.5 10.5 h 20 20 v 10 10 h 10 10 v 10 10 h 10.5 10.5 v 10 10 h 30 30 v 10 10 h 10 10 z M 303,434 V 424 H 293 283 V 414 404 H 262.5 242 V 393.5 383 h 20.5 20.5 v 10.5 10.5 h 10 10 v 10 10 h 10 10 v 10 10 H 313 303 Z M 283,282.5 V 262 h 20 20 v 10.5 10.5 h -10 -10 v 10 10 h -10 -10 z m 80,10.5 v -10 h 20.5 20.5 v 10 10 H 383.5 363 Z m -20,-41 v -10 h 30.5 30.5 v 10 10 H 373.5 343 Z m 141,202 v -30 h -30 -30 v 30 30 h 30 30 z m -40,0 v -10 h 10 10 v 10 10 h -10 -10 z m 0,-60.5 V 383 h -20 -20 v 10.5 10.5 h 20 20 z M 464,353 v -10 h -10 -10 v 10 10 h 10 10 z m 41,0 V 343 H 494.5 484 v 10 10 H 494.5 505 Z M 283,212 v -10 h 10 10 v 10 10 h 10 10 v -20 -20 h 10 10 V 171.5 161 H 333 323 V 171.5 182 H 313 303 V 171.5 161 H 293 283 V 181.5 202 H 272.5 262 v 10 10 H 272.5 283 Z M 81,383.5 V 343 h 20 20 v 10 10 H 111 101 V 393.5 424 H 91 81 Z M 505,252 v -10 h 10 10 v 10 10 H 515 505 Z M 81,151.5 V 81 H 151.5 222 V 151.5 222 H 151.5 81 Z m 121,0 V 101 H 151.5 101 v 50.5 50.5 h 50.5 50.5 z m -81,0 V 121 H 151.5 182 V 151.5 182 H 151.5 121 Z m 323,0 V 81 H 514.5 585 V 151.5 222 H 514.5 444 Z m 121,0 V 101 H 514.5 464 v 50.5 50.5 h 50.5 50.5 z m -81,0 V 121 H 514.5 545 V 151.5 182 H 514.5 484 Z M 242,111 v -10 h 10 10 v 10 10 h -10 -10 z m 41,0 v -10 h 10 10 v 10 10 h -10 -10 z"
       id="path1" />
  </g>
</svg>
