<?xml version="1.0" encoding="UTF-8"?>
<svg id="Layer_2" data-name="Layer 2" xmlns="http://www.w3.org/2000/svg" viewBox="0 0 108.73 18.38">
  <defs>
    <style>
      .cls-1, .cls-2 {
        fill: #fff;
      }

      .cls-2 {
        stroke: #000;
        stroke-linecap: round;
        stroke-linejoin: round;
        stroke-width: .8px;
      }
    </style>
  </defs>
  <g id="Layer_1-2" data-name="Layer 1">
    <g>
      <g>
        <path class="cls-1" d="M.27,13.15c-.35-.35-.35-.92,0-1.28.29-.29.73-.36,1.09-.16l.9.5,1.23-1.26c-.52-.91-.89-2.09-1.09-3.49-.16-1.13-.14-2.24.07-2.88.11-.36.39-.63.65-.89.22-.22.45-.45.58-.73.38-.81,1.51-1.8,1.63-1.89,1.11-.83,3.03-1.53,3.76-.69.04.05.08.1.11.16.11-.02.21-.04.32-.06h.04c.54-.24,1.53-.29,2.28-.29,3.34,0,5.81,1.25,6.18,3.1v.06s.03.07.15,2.12c.93.09,1.7.57,2.14,1.37.57,1.05.46,2.41-.31,3.48-.75,1.2-2.17,1.87-3.66,1.73-.04.04-.07.09-.11.13l1.34,2.26c.13.22.17.49.1.74-.07.25-.23.46-.45.59l-4.28,2.47c-.14.08-.3.12-.45.12-.31,0-.62-.16-.79-.45-.21-.35-.16-.8.13-1.1l.71-.74-.81-1.37c-.31.06-.61.09-.92.11-1.16.07-2.3-.1-3.38-.53l-2.28,2.33c-.18.19-.43.29-.69.29-.25.01-.51-.1-.69-.28L.27,13.15Z"/>
        <path d="M16.13,3.91c-1.12,3.43-5.97,3.97-8.13,3.69s-3.79-.9-4.16-2.69c-.37-1.77,1.64-3.32,1.78-3.42,1.01-.76,2.63-1.29,3.08-.76.68.78-1.58,3.46-1.04,3.93.27.23.96.01,1.67-.65s1.63-2.03,2.4-1.87-.63,1.92.24,2.08,2.26-.92,3.15-1.13c.72-.16,1.17.16,1,.83Z"/>
        <g>
          <path d="M18.55,6.03c-.29-.08-.58-.1-.86-.08-.05-.85-.15-2.42-.16-2.47-.28-1.69-2.66-2.76-5.71-2.76-.73,0-2.15.06-2.32.43-.16.38.09.7.36.66.26-.04.56-.09.85-.12.4-.04.77-.05,1.11-.05,2.52,0,4.57.84,4.79,1.96.02.24.1,1.61.17,2.63-.79.41-1.42,1.2-1.69,2.02-.15.42.45.71.68.33.24-.39.53-.74.87-1,.46-.35,1.01-.57,1.52-.39.46.18.77.58.74,1.1-.21,1.84-1.92,2.66-3.65,2.19-.42-.1-.65.5-.26.71.06.03.12.06.17.09-1.1,1.23-2.67,2.05-4.44,2.17-.14,0-.28.01-.42.01-2.26,0-3.93-1.33-4.29-1.63-2.91-2.41-2.4-6.74-2.51-7.14-.11-.4-.45-.21-.56.06-.11.27-.15,1.9-.05,2.66.09.76.51,2.56,1.22,3.63l-1.76,1.81-1.23-.68c-.16-.09-.37-.06-.5.07-.16.16-.16.42,0,.58l3.5,3.5c.19.19.49.18.67,0l2.51-2.58c.94.41,1.95.64,2.99.64.16,0,.32,0,.48-.02.41-.03.81-.09,1.2-.18l1.19,2-.97,1.01c-.13.13-.15.34-.06.5.12.19.37.26.56.15l4.28-2.47c.23-.13.3-.42.17-.65l-1.53-2.58c.17-.18.34-.37.49-.56,1.34.24,2.79-.3,3.53-1.52.97-1.39.73-3.48-1.07-4.04Z"/>
          <path class="cls-2" d="M17.14,8.21c.02.2.02.49-.08.84-.1.36-.27.64-.4.82"/>
        </g>
      </g>
      <g>
        <path class="cls-1" d="M30.12,10.26h-1.39v3.28h-2.06V4.82c1.12,0,2.24,0,3.35,0,2.26,0,3.96.54,3.96,2.69,0,1.29-.71,2.02-1.71,2.4.72,1.21,1.43,2.41,2.15,3.62h-2.42c-.63-1.09-1.26-2.19-1.89-3.28ZM28.72,6.56v1.97h1.36c.97,0,1.72-.16,1.72-.99,0-.81-.75-.99-1.72-.99h-1.36Z"/>
        <path class="cls-1" d="M35.34,4.82c2.23,0,4.46,0,6.69,0v1.8h-4.63v1.53h4.38v1.82h-4.38v1.75h4.63v1.82h-6.69c0-2.91,0-5.81,0-8.72Z"/>
        <path class="cls-1" d="M45.85,6.63h-2.79c0-.6,0-1.2,0-1.8,2.55,0,5.11,0,7.66,0v1.8h-2.8v6.91h-2.07v-6.91Z"/>
        <path class="cls-1" d="M56.84,7.35c-.21-.66-.84-1.02-1.72-1.02-.81,0-1.38.3-1.38.84,0,.43.4.75,1.01.88.4.08.79.16,1.19.24,1.41.29,3.19.72,3.19,2.55,0,1.83-1.83,2.86-3.66,2.86-2.26,0-3.69-1.08-4.01-2.99h2.04c.23.91.95,1.34,2.02,1.33.71,0,1.49-.23,1.49-.95,0-.57-.66-.84-1.62-1.05-.35-.07-.71-.14-1.06-.22-1.42-.29-2.71-.97-2.71-2.54,0-1.78,1.91-2.61,3.62-2.61s3.34.75,3.63,2.67h-2.03Z"/>
        <path class="cls-1" d="M62.16,8.28c1.05-1.15,2.11-2.3,3.16-3.45.84,0,1.68,0,2.51,0-1.07,1.16-2.15,2.32-3.22,3.47,1.13,1.75,2.26,3.49,3.39,5.24h-2.48c-.79-1.23-1.57-2.45-2.36-3.68-.34.37-.67.74-1.01,1.11,0,.86,0,1.72,0,2.57h-2.06c0-2.91,0-5.81,0-8.72.69,0,1.37,0,2.06,0,0,1.15,0,2.3,0,3.45Z"/>
        <path class="cls-1" d="M70.87,4.83c.75,0,1.51,0,2.26,0,1.1,2.91,2.2,5.81,3.29,8.72h-2.24c-.18-.52-.35-1.03-.53-1.55h-3.37c-.17.52-.34,1.03-.52,1.55h-2.19c1.09-2.91,2.19-5.81,3.28-8.72ZM70.86,10.32h2.25c-.37-1.11-.75-2.21-1.12-3.32-.38,1.11-.75,2.21-1.13,3.32Z"/>
        <path class="cls-1" d="M77.16,4.83c2.14,0,4.28,0,6.42,0v1.8c-1.45,0-2.91,0-4.36,0v1.53h4.1c0,.61,0,1.21,0,1.82h-4.1v3.57h-2.06V4.83Z"/>
        <path class="cls-1" d="M84.85,4.83c2.14,0,4.28,0,6.42,0v1.8c-1.45,0-2.91,0-4.36,0,0,.51,0,1.02,0,1.53h4.1c0,.61,0,1.21,0,1.82h-4.1c0,1.19,0,2.38,0,3.57h-2.06V4.83Z"/>
        <path class="cls-1" d="M92.77,4.83c2.23,0,4.46,0,6.68,0,0,.6,0,1.2,0,1.8-1.54,0-3.09,0-4.63,0,0,.51,0,1.02,0,1.53h4.38c0,.61,0,1.21,0,1.82h-4.38c0,.58,0,1.17,0,1.75,1.54,0,3.09,0,4.63,0,0,.61,0,1.21,0,1.82h-6.68V4.83Z"/>
        <path class="cls-1" d="M106.23,13.55c-1.17-2-2.33-4.01-3.5-6.01,0,2,0,4.01,0,6.01h-1.98c0-2.91,0-5.81,0-8.72.83,0,1.67,0,2.5,0,1.17,2,2.33,4.01,3.5,6.01,0-2,0-4.01,0-6.01.66,0,1.32,0,1.98,0v8.72h-2.5Z"/>
      </g>
    </g>
  </g>
</svg>